<svg xmlns="http://www.w3.org/2000/svg" viewBox="0 0 48 48"><title>settings</title><path d="M26,48H22a3,3,0,0,1-3-3V41.28a17.85,17.85,0,0,1-3.68-1.53l-2.63,2.63a3.07,3.07,0,0,1-4.24,0L5.61,39.56a3,3,0,0,1,0-4.24l2.63-2.64A17.74,17.74,0,0,1,6.72,29H3a3,3,0,0,1-3-3V22a3,3,0,0,1,3-3H6.72a17.86,17.86,0,0,1,1.53-3.68L5.62,12.69a3,3,0,0,1,0-4.24L8.44,5.61a3.07,3.07,0,0,1,4.24,0l2.64,2.63A17.84,17.84,0,0,1,19,6.72V3a3,3,0,0,1,3-3h4a3,3,0,0,1,3,3V6.72a17.86,17.86,0,0,1,3.68,1.52l2.63-2.64a3.07,3.07,0,0,1,4.24,0l2.83,2.83a3,3,0,0,1,0,4.24l-2.63,2.64A17.76,17.76,0,0,1,41.28,19H45a3,3,0,0,1,3,3v4a3,3,0,0,1-3,3H41.28a17.85,17.85,0,0,1-1.53,3.68l2.63,2.63a3,3,0,0,1,0,4.24l-2.83,2.83a3.07,3.07,0,0,1-4.24,0l-2.63-2.63A17.86,17.86,0,0,1,29,41.28V45A3,3,0,0,1,26,48ZM15.16,37.5a1,1,0,0,1,.52.15,15.88,15.88,0,0,0,4.56,1.89,1,1,0,0,1,.76,1V45a1,1,0,0,0,1,1h4a1,1,0,0,0,1-1V40.51a1,1,0,0,1,.76-1,15.88,15.88,0,0,0,4.56-1.89,1,1,0,0,1,1.23.15L36.73,41a1,1,0,0,0,1.42,0L41,38.14a1,1,0,0,0,0-1.41l-3.18-3.18a1,1,0,0,1-.15-1.23,15.86,15.86,0,0,0,1.89-4.56,1,1,0,0,1,1-.77H45a1,1,0,0,0,.71-0.29A1,1,0,0,0,46,26V22a1,1,0,0,0-1-1H40.51a1,1,0,0,1-1-.77,15.85,15.85,0,0,0-1.89-4.56,1,1,0,0,1,.15-1.23L41,11.27a1,1,0,0,0,0-1.41L38.14,7a1,1,0,0,0-1.42,0l-3.18,3.18a1,1,0,0,1-1.23.15,15.86,15.86,0,0,0-4.55-1.89,1,1,0,0,1-.76-1V3a1,1,0,0,0-1-1H22a1,1,0,0,0-1,1V7.49a1,1,0,0,1-.76,1,15.87,15.87,0,0,0-4.56,1.89,1,1,0,0,1-1.23-.15L11.27,7A1,1,0,0,0,9.86,7L7,9.86a1,1,0,0,0,0,1.41l3.18,3.18a1,1,0,0,1,.15,1.23,15.86,15.86,0,0,0-1.89,4.55,1,1,0,0,1-1,.77H3a1,1,0,0,0-1,1v4a1,1,0,0,0,1,1H7.49a1,1,0,0,1,1,.77,15.87,15.87,0,0,0,1.89,4.55,1,1,0,0,1-.15,1.23L7,36.73a1,1,0,0,0,0,1.41L9.86,41a1,1,0,0,0,1.41,0l3.18-3.18A1,1,0,0,1,15.16,37.5Z"/><path d="M24,34A10,10,0,1,1,34,24,10,10,0,0,1,24,34Zm0-18a8,8,0,1,0,8,8A8,8,0,0,0,24,16Z"/></svg>