<?xml version="1.0" encoding="utf-8"?>
<!-- Generator: Adobe Illustrator 17.1.0, SVG Export Plug-In . SVG Version: 6.00 Build 0)  -->
<!DOCTYPE svg PUBLIC "-//W3C//DTD SVG 1.1//EN" "http://www.w3.org/Graphics/SVG/1.1/DTD/svg11.dtd">
<svg version="1.1" id="Layer_1" xmlns="http://www.w3.org/2000/svg" xmlns:xlink="http://www.w3.org/1999/xlink" x="0px" y="0px"
	 viewBox="0 0 62.4 56.4" enable-background="new 0 0 62.4 56.4" xml:space="preserve">
<path fill-rule="evenodd" clip-rule="evenodd" d="M61.2,33.6c-0.7,0-1.2-0.5-1.2-1.2V16.8c0-0.7,0.5-1.2,1.2-1.2
	c0.7,0,1.2,0.5,1.2,1.2v15.6C62.4,33.1,61.9,33.6,61.2,33.6L61.2,33.6z M56.4,38.4c-0.7,0-1.2-0.5-1.2-1.2V12c0-0.7,0.5-1.2,1.2-1.2
	c0.7,0,1.2,0.5,1.2,1.2v25.2C57.6,37.9,57.1,38.4,56.4,38.4L56.4,38.4z M51.6,33.6c-0.7,0-1.2-0.5-1.2-1.2V16.8
	c0-0.7,0.5-1.2,1.2-1.2c0.7,0,1.2,0.5,1.2,1.2v15.6C52.8,33.1,52.3,33.6,51.6,33.6L51.6,33.6z M39.6,48h-4.8v8.4h-7.2V48h-4.8
	c-4,0-7.2-3.2-7.2-7.2V7.2c0-4,3.2-7.2,7.2-7.2h16.8c4,0,7.2,3.2,7.2,7.2v33.6C46.8,44.8,43.6,48,39.6,48L39.6,48z M30,54h2.4v-6H30
	V54L30,54z M44.4,34.8H33.6c-0.7,0-1.2-0.5-1.2-1.2c0-0.7,0.5-1.2,1.2-1.2h10.8V30H33.6c-0.7,0-1.2-0.5-1.2-1.2s0.5-1.2,1.2-1.2
	h10.8v-2.4H33.6c-0.7,0-1.2-0.5-1.2-1.2s0.5-1.2,1.2-1.2h10.8v-2.4H33.6c-0.7,0-1.2-0.5-1.2-1.2c0-0.7,0.5-1.2,1.2-1.2h10.8v-2.4
	H33.6c-0.7,0-1.2-0.5-1.2-1.2c0-0.7,0.5-1.2,1.2-1.2h10.8v-6c0-2.7-2.1-4.8-4.8-4.8v4.8c0,0.7-0.5,1.2-1.2,1.2
	c-0.7,0-1.2-0.5-1.2-1.2V2.4h-2.4v4.8c0,0.7-0.5,1.2-1.2,1.2c-0.7,0-1.2-0.5-1.2-1.2V2.4H30v4.8c0,0.7-0.5,1.2-1.2,1.2
	s-1.2-0.5-1.2-1.2V2.4h-2.4v4.8c0,0.7-0.5,1.2-1.2,1.2c-0.7,0-1.2-0.5-1.2-1.2V2.4c-2.7,0-4.8,2.1-4.8,4.8v6h10.8
	c0.7,0,1.2,0.5,1.2,1.2c0,0.7-0.5,1.2-1.2,1.2H18V18h10.8c0.7,0,1.2,0.5,1.2,1.2c0,0.7-0.5,1.2-1.2,1.2H18v2.4h10.8
	c0.7,0,1.2,0.5,1.2,1.2s-0.5,1.2-1.2,1.2H18v2.4h10.8c0.7,0,1.2,0.5,1.2,1.2S29.5,30,28.8,30H18v2.4h10.8c0.7,0,1.2,0.5,1.2,1.2
	c0,0.7-0.5,1.2-1.2,1.2H18v6c0,2.7,2.1,4.8,4.8,4.8v-4.8c0-0.7,0.5-1.2,1.2-1.2c0.7,0,1.2,0.5,1.2,1.2v4.8h2.4v-4.8
	c0-0.7,0.5-1.2,1.2-1.2s1.2,0.5,1.2,1.2v4.8h2.4v-4.8c0-0.7,0.5-1.2,1.2-1.2c0.7,0,1.2,0.5,1.2,1.2v4.8h2.4v-4.8
	c0-0.7,0.5-1.2,1.2-1.2c0.7,0,1.2,0.5,1.2,1.2v4.8c2.7,0,4.8-2.1,4.8-4.8V34.8L44.4,34.8z M10.8,33.6c-0.7,0-1.2-0.5-1.2-1.2V16.8
	c0-0.7,0.5-1.2,1.2-1.2c0.7,0,1.2,0.5,1.2,1.2v15.6C12,33.1,11.5,33.6,10.8,33.6L10.8,33.6z M6,38.4c-0.7,0-1.2-0.5-1.2-1.2V12
	c0-0.7,0.5-1.2,1.2-1.2c0.7,0,1.2,0.5,1.2,1.2v25.2C7.2,37.9,6.7,38.4,6,38.4L6,38.4z M1.2,33.6c-0.7,0-1.2-0.5-1.2-1.2V16.8
	c0-0.7,0.5-1.2,1.2-1.2c0.7,0,1.2,0.5,1.2,1.2v15.6C2.4,33.1,1.9,33.6,1.2,33.6L1.2,33.6z"/>
</svg>
